<mxfile host="app.diagrams.net" modified="2023-04-29T15:28:50.406Z" agent="Mozilla/5.0 (Windows NT 10.0; Win64; x64) AppleWebKit/537.36 (KHTML, like Gecko) Chrome/112.0.0.0 Safari/537.36" etag="xmPOnrwwGkldfuc8sFQO" version="21.2.3" type="github">
  <diagram id="R2lEEEUBdFMjLlhIrx00" name="Page-1">
    <mxGraphModel dx="2045" dy="1763" grid="1" gridSize="10" guides="1" tooltips="1" connect="1" arrows="1" fold="1" page="1" pageScale="1" pageWidth="850" pageHeight="1100" math="0" shadow="0" extFonts="Permanent Marker^https://fonts.googleapis.com/css?family=Permanent+Marker">
      <root>
        <mxCell id="0" />
        <mxCell id="1" parent="0" />
        <mxCell id="pie1EhJkZhUP2Qu_YC7P-71" style="edgeStyle=orthogonalEdgeStyle;rounded=0;orthogonalLoop=1;jettySize=auto;html=1;exitX=1;exitY=0.5;exitDx=0;exitDy=0;entryX=-0.01;entryY=0.173;entryDx=0;entryDy=0;entryPerimeter=0;shape=link;" edge="1" parent="1" source="nmunE1XIVpIi25E5p-Tx-1" target="pie1EhJkZhUP2Qu_YC7P-9">
          <mxGeometry relative="1" as="geometry" />
        </mxCell>
        <mxCell id="nmunE1XIVpIi25E5p-Tx-1" value="tem" style="rhombus;whiteSpace=wrap;html=1;" parent="1" vertex="1">
          <mxGeometry x="410" y="62.5" width="105" height="105" as="geometry" />
        </mxCell>
        <mxCell id="pie1EhJkZhUP2Qu_YC7P-122" style="edgeStyle=orthogonalEdgeStyle;rounded=0;orthogonalLoop=1;jettySize=auto;html=1;entryX=0.35;entryY=-0.039;entryDx=0;entryDy=0;entryPerimeter=0;exitX=0;exitY=0.25;exitDx=0;exitDy=0;curved=1;endArrow=none;endFill=0;" edge="1" parent="1" source="pie1EhJkZhUP2Qu_YC7P-8" target="pie1EhJkZhUP2Qu_YC7P-121">
          <mxGeometry relative="1" as="geometry" />
        </mxCell>
        <mxCell id="pie1EhJkZhUP2Qu_YC7P-8" value="Bolsa" style="rounded=0;whiteSpace=wrap;html=1;" vertex="1" parent="1">
          <mxGeometry x="185" y="85" width="120" height="60" as="geometry" />
        </mxCell>
        <mxCell id="pie1EhJkZhUP2Qu_YC7P-76" style="edgeStyle=orthogonalEdgeStyle;rounded=0;orthogonalLoop=1;jettySize=auto;html=1;entryX=0.5;entryY=0;entryDx=0;entryDy=0;endArrow=none;endFill=0;" edge="1" parent="1" source="pie1EhJkZhUP2Qu_YC7P-78" target="pie1EhJkZhUP2Qu_YC7P-74">
          <mxGeometry relative="1" as="geometry">
            <mxPoint x="880" y="210" as="targetPoint" />
            <Array as="points">
              <mxPoint x="1050" y="135" />
            </Array>
          </mxGeometry>
        </mxCell>
        <mxCell id="pie1EhJkZhUP2Qu_YC7P-80" style="edgeStyle=orthogonalEdgeStyle;rounded=0;orthogonalLoop=1;jettySize=auto;html=1;entryX=0;entryY=0.5;entryDx=0;entryDy=0;endArrow=none;endFill=0;" edge="1" parent="1" source="pie1EhJkZhUP2Qu_YC7P-9" target="pie1EhJkZhUP2Qu_YC7P-78">
          <mxGeometry relative="1" as="geometry" />
        </mxCell>
        <mxCell id="pie1EhJkZhUP2Qu_YC7P-120" style="edgeStyle=orthogonalEdgeStyle;rounded=0;orthogonalLoop=1;jettySize=auto;html=1;entryX=0.5;entryY=0;entryDx=0;entryDy=0;curved=1;endArrow=none;endFill=0;" edge="1" parent="1" source="pie1EhJkZhUP2Qu_YC7P-9" target="pie1EhJkZhUP2Qu_YC7P-119">
          <mxGeometry relative="1" as="geometry" />
        </mxCell>
        <mxCell id="pie1EhJkZhUP2Qu_YC7P-9" value="ProcessoSeletivo" style="rounded=0;whiteSpace=wrap;html=1;" vertex="1" parent="1">
          <mxGeometry x="620" y="105" width="120" height="60" as="geometry" />
        </mxCell>
        <mxCell id="pie1EhJkZhUP2Qu_YC7P-16" value="" style="endArrow=none;html=1;rounded=0;exitX=1;exitY=0.5;exitDx=0;exitDy=0;entryX=0;entryY=0.5;entryDx=0;entryDy=0;shape=link;" edge="1" parent="1" source="pie1EhJkZhUP2Qu_YC7P-8" target="nmunE1XIVpIi25E5p-Tx-1">
          <mxGeometry width="50" height="50" relative="1" as="geometry">
            <mxPoint x="380" y="117.5" as="sourcePoint" />
            <mxPoint x="430" y="67.5" as="targetPoint" />
          </mxGeometry>
        </mxCell>
        <mxCell id="pie1EhJkZhUP2Qu_YC7P-20" value="1, n" style="text;html=1;align=center;verticalAlign=middle;resizable=0;points=[];autosize=1;strokeColor=none;fillColor=none;" vertex="1" parent="1">
          <mxGeometry x="305" y="85" width="40" height="30" as="geometry" />
        </mxCell>
        <mxCell id="pie1EhJkZhUP2Qu_YC7P-21" value="1, 1" style="text;html=1;align=center;verticalAlign=middle;resizable=0;points=[];autosize=1;strokeColor=none;fillColor=none;" vertex="1" parent="1">
          <mxGeometry x="580" y="85" width="40" height="30" as="geometry" />
        </mxCell>
        <mxCell id="pie1EhJkZhUP2Qu_YC7P-82" style="edgeStyle=orthogonalEdgeStyle;rounded=0;orthogonalLoop=1;jettySize=auto;html=1;exitX=1;exitY=0.5;exitDx=0;exitDy=0;endArrow=none;endFill=0;" edge="1" parent="1" source="pie1EhJkZhUP2Qu_YC7P-22" target="pie1EhJkZhUP2Qu_YC7P-81">
          <mxGeometry relative="1" as="geometry" />
        </mxCell>
        <mxCell id="pie1EhJkZhUP2Qu_YC7P-104" style="edgeStyle=orthogonalEdgeStyle;rounded=0;orthogonalLoop=1;jettySize=auto;html=1;entryX=0.5;entryY=0;entryDx=0;entryDy=0;curved=1;endArrow=none;endFill=0;" edge="1" parent="1" source="pie1EhJkZhUP2Qu_YC7P-22" target="pie1EhJkZhUP2Qu_YC7P-100">
          <mxGeometry relative="1" as="geometry">
            <Array as="points">
              <mxPoint x="680" y="460" />
              <mxPoint x="630" y="460" />
            </Array>
          </mxGeometry>
        </mxCell>
        <mxCell id="pie1EhJkZhUP2Qu_YC7P-105" style="edgeStyle=orthogonalEdgeStyle;rounded=0;orthogonalLoop=1;jettySize=auto;html=1;entryX=0.5;entryY=0;entryDx=0;entryDy=0;curved=1;endArrow=none;endFill=0;" edge="1" parent="1" source="pie1EhJkZhUP2Qu_YC7P-22" target="pie1EhJkZhUP2Qu_YC7P-101">
          <mxGeometry relative="1" as="geometry">
            <Array as="points">
              <mxPoint x="680" y="520" />
              <mxPoint x="630" y="520" />
            </Array>
          </mxGeometry>
        </mxCell>
        <mxCell id="pie1EhJkZhUP2Qu_YC7P-22" value="Aluno" style="rounded=0;whiteSpace=wrap;html=1;comic=0;fixDash=0;container=0;glass=0;shadow=0;" vertex="1" parent="1">
          <mxGeometry x="620" y="380" width="120" height="60" as="geometry" />
        </mxCell>
        <mxCell id="pie1EhJkZhUP2Qu_YC7P-30" style="edgeStyle=orthogonalEdgeStyle;rounded=0;orthogonalLoop=1;jettySize=auto;html=1;entryX=0;entryY=0.5;entryDx=0;entryDy=0;endArrow=none;endFill=0;" edge="1" parent="1" source="pie1EhJkZhUP2Qu_YC7P-28" target="pie1EhJkZhUP2Qu_YC7P-22">
          <mxGeometry relative="1" as="geometry" />
        </mxCell>
        <mxCell id="pie1EhJkZhUP2Qu_YC7P-39" style="edgeStyle=orthogonalEdgeStyle;rounded=0;orthogonalLoop=1;jettySize=auto;html=1;entryX=0.456;entryY=1;entryDx=0;entryDy=0;entryPerimeter=0;endArrow=none;endFill=0;" edge="1" parent="1" source="pie1EhJkZhUP2Qu_YC7P-28" target="pie1EhJkZhUP2Qu_YC7P-8">
          <mxGeometry relative="1" as="geometry" />
        </mxCell>
        <mxCell id="pie1EhJkZhUP2Qu_YC7P-28" value="pertence" style="rhombus;whiteSpace=wrap;html=1;" vertex="1" parent="1">
          <mxGeometry x="363" y="202.5" width="105" height="105" as="geometry" />
        </mxCell>
        <mxCell id="pie1EhJkZhUP2Qu_YC7P-31" value="0, 1" style="text;html=1;align=center;verticalAlign=middle;resizable=0;points=[];autosize=1;strokeColor=none;fillColor=none;" vertex="1" parent="1">
          <mxGeometry x="240" y="145" width="40" height="30" as="geometry" />
        </mxCell>
        <mxCell id="pie1EhJkZhUP2Qu_YC7P-32" value="0, 1" style="text;html=1;align=center;verticalAlign=middle;resizable=0;points=[];autosize=1;strokeColor=none;fillColor=none;" vertex="1" parent="1">
          <mxGeometry x="580" y="380" width="40" height="30" as="geometry" />
        </mxCell>
        <mxCell id="pie1EhJkZhUP2Qu_YC7P-35" style="edgeStyle=orthogonalEdgeStyle;rounded=0;orthogonalLoop=1;jettySize=auto;html=1;exitX=0.5;exitY=1;exitDx=0;exitDy=0;entryX=0.5;entryY=0;entryDx=0;entryDy=0;endArrow=none;endFill=0;" edge="1" parent="1" source="pie1EhJkZhUP2Qu_YC7P-33" target="pie1EhJkZhUP2Qu_YC7P-34">
          <mxGeometry relative="1" as="geometry" />
        </mxCell>
        <mxCell id="pie1EhJkZhUP2Qu_YC7P-56" style="edgeStyle=orthogonalEdgeStyle;rounded=0;orthogonalLoop=1;jettySize=auto;html=1;entryX=1;entryY=0.5;entryDx=0;entryDy=0;endArrow=none;endFill=0;" edge="1" parent="1" source="pie1EhJkZhUP2Qu_YC7P-33" target="pie1EhJkZhUP2Qu_YC7P-55">
          <mxGeometry relative="1" as="geometry">
            <Array as="points">
              <mxPoint x="543" y="-130" />
              <mxPoint x="543" />
            </Array>
          </mxGeometry>
        </mxCell>
        <mxCell id="pie1EhJkZhUP2Qu_YC7P-62" style="edgeStyle=orthogonalEdgeStyle;rounded=0;orthogonalLoop=1;jettySize=auto;html=1;exitX=-0.001;exitY=0.39;exitDx=0;exitDy=0;entryX=0.96;entryY=0.513;entryDx=0;entryDy=0;entryPerimeter=0;shape=link;exitPerimeter=0;" edge="1" parent="1" source="pie1EhJkZhUP2Qu_YC7P-33" target="pie1EhJkZhUP2Qu_YC7P-50">
          <mxGeometry relative="1" as="geometry">
            <Array as="points" />
          </mxGeometry>
        </mxCell>
        <mxCell id="pie1EhJkZhUP2Qu_YC7P-113" style="edgeStyle=orthogonalEdgeStyle;rounded=0;orthogonalLoop=1;jettySize=auto;html=1;entryX=0.5;entryY=1;entryDx=0;entryDy=0;curved=1;exitX=0.5;exitY=0;exitDx=0;exitDy=0;endArrow=none;endFill=0;" edge="1" parent="1" source="pie1EhJkZhUP2Qu_YC7P-33" target="pie1EhJkZhUP2Qu_YC7P-111">
          <mxGeometry relative="1" as="geometry">
            <Array as="points">
              <mxPoint x="680" y="-210" />
              <mxPoint x="680" y="-210" />
            </Array>
          </mxGeometry>
        </mxCell>
        <mxCell id="pie1EhJkZhUP2Qu_YC7P-33" value="Professor" style="rounded=0;whiteSpace=wrap;html=1;" vertex="1" parent="1">
          <mxGeometry x="620" y="-170" width="120" height="60" as="geometry" />
        </mxCell>
        <mxCell id="pie1EhJkZhUP2Qu_YC7P-36" style="edgeStyle=orthogonalEdgeStyle;rounded=0;orthogonalLoop=1;jettySize=auto;html=1;exitX=0.5;exitY=1;exitDx=0;exitDy=0;entryX=0.5;entryY=0;entryDx=0;entryDy=0;endArrow=none;endFill=0;shape=link;" edge="1" parent="1" source="pie1EhJkZhUP2Qu_YC7P-34" target="pie1EhJkZhUP2Qu_YC7P-9">
          <mxGeometry relative="1" as="geometry" />
        </mxCell>
        <mxCell id="pie1EhJkZhUP2Qu_YC7P-34" value="administra" style="rhombus;whiteSpace=wrap;html=1;" vertex="1" parent="1">
          <mxGeometry x="627.5" y="-50" width="105" height="105" as="geometry" />
        </mxCell>
        <mxCell id="pie1EhJkZhUP2Qu_YC7P-37" value="0, n" style="text;html=1;align=center;verticalAlign=middle;resizable=0;points=[];autosize=1;strokeColor=none;fillColor=none;" vertex="1" parent="1">
          <mxGeometry x="640" y="-110" width="40" height="30" as="geometry" />
        </mxCell>
        <mxCell id="pie1EhJkZhUP2Qu_YC7P-38" value="1, 1" style="text;html=1;align=center;verticalAlign=middle;resizable=0;points=[];autosize=1;strokeColor=none;fillColor=none;" vertex="1" parent="1">
          <mxGeometry x="680" y="75" width="40" height="30" as="geometry" />
        </mxCell>
        <mxCell id="pie1EhJkZhUP2Qu_YC7P-66" style="edgeStyle=orthogonalEdgeStyle;rounded=0;orthogonalLoop=1;jettySize=auto;html=1;entryX=0.5;entryY=0;entryDx=0;entryDy=0;endArrow=none;endFill=0;" edge="1" parent="1" source="pie1EhJkZhUP2Qu_YC7P-43" target="pie1EhJkZhUP2Qu_YC7P-45">
          <mxGeometry relative="1" as="geometry" />
        </mxCell>
        <mxCell id="pie1EhJkZhUP2Qu_YC7P-110" style="edgeStyle=orthogonalEdgeStyle;rounded=0;orthogonalLoop=1;jettySize=auto;html=1;entryX=1.039;entryY=0.344;entryDx=0;entryDy=0;entryPerimeter=0;curved=1;endArrow=none;endFill=0;" edge="1" parent="1" source="pie1EhJkZhUP2Qu_YC7P-43" target="pie1EhJkZhUP2Qu_YC7P-107">
          <mxGeometry relative="1" as="geometry">
            <Array as="points">
              <mxPoint x="20" />
              <mxPoint x="20" y="65" />
            </Array>
          </mxGeometry>
        </mxCell>
        <mxCell id="pie1EhJkZhUP2Qu_YC7P-43" value="Instituto" style="rounded=0;whiteSpace=wrap;html=1;comic=0;jiggle=100;" vertex="1" parent="1">
          <mxGeometry x="40" y="-30" width="120" height="60" as="geometry" />
        </mxCell>
        <mxCell id="pie1EhJkZhUP2Qu_YC7P-67" style="edgeStyle=orthogonalEdgeStyle;rounded=0;orthogonalLoop=1;jettySize=auto;html=1;entryX=0;entryY=0.907;entryDx=0;entryDy=0;entryPerimeter=0;shape=link;" edge="1" parent="1" source="pie1EhJkZhUP2Qu_YC7P-45" target="pie1EhJkZhUP2Qu_YC7P-22">
          <mxGeometry relative="1" as="geometry">
            <Array as="points">
              <mxPoint x="100" y="434" />
              <mxPoint x="386" y="434" />
            </Array>
          </mxGeometry>
        </mxCell>
        <mxCell id="pie1EhJkZhUP2Qu_YC7P-45" value="vinculado" style="rhombus;whiteSpace=wrap;html=1;double=0;" vertex="1" parent="1">
          <mxGeometry x="47.5" y="195" width="105" height="105" as="geometry" />
        </mxCell>
        <mxCell id="pie1EhJkZhUP2Qu_YC7P-63" style="edgeStyle=orthogonalEdgeStyle;rounded=0;orthogonalLoop=1;jettySize=auto;html=1;entryX=0.5;entryY=-0.01;entryDx=0;entryDy=0;entryPerimeter=0;endArrow=none;endFill=0;shape=link;" edge="1" parent="1" source="pie1EhJkZhUP2Qu_YC7P-50" target="pie1EhJkZhUP2Qu_YC7P-43">
          <mxGeometry relative="1" as="geometry">
            <Array as="points">
              <mxPoint x="100" y="-147" />
            </Array>
          </mxGeometry>
        </mxCell>
        <mxCell id="pie1EhJkZhUP2Qu_YC7P-50" value="vinculado" style="rhombus;whiteSpace=wrap;html=1;double=0;" vertex="1" parent="1">
          <mxGeometry x="290" y="-200" width="105" height="105" as="geometry" />
        </mxCell>
        <mxCell id="pie1EhJkZhUP2Qu_YC7P-51" value="1, 1" style="text;html=1;align=center;verticalAlign=middle;resizable=0;points=[];autosize=1;strokeColor=none;fillColor=none;" vertex="1" parent="1">
          <mxGeometry x="580" y="440" width="40" height="30" as="geometry" />
        </mxCell>
        <mxCell id="pie1EhJkZhUP2Qu_YC7P-52" value="0, n" style="text;html=1;align=center;verticalAlign=middle;resizable=0;points=[];autosize=1;strokeColor=none;fillColor=none;" vertex="1" parent="1">
          <mxGeometry x="40" y="32.5" width="40" height="30" as="geometry" />
        </mxCell>
        <mxCell id="pie1EhJkZhUP2Qu_YC7P-53" value="1, n" style="text;html=1;align=center;verticalAlign=middle;resizable=0;points=[];autosize=1;strokeColor=none;fillColor=none;" vertex="1" parent="1">
          <mxGeometry x="40" y="-60" width="40" height="30" as="geometry" />
        </mxCell>
        <mxCell id="pie1EhJkZhUP2Qu_YC7P-54" value="1, 1" style="text;html=1;align=center;verticalAlign=middle;resizable=0;points=[];autosize=1;strokeColor=none;fillColor=none;" vertex="1" parent="1">
          <mxGeometry x="570" y="-180" width="40" height="30" as="geometry" />
        </mxCell>
        <mxCell id="pie1EhJkZhUP2Qu_YC7P-57" style="edgeStyle=orthogonalEdgeStyle;rounded=0;orthogonalLoop=1;jettySize=auto;html=1;endArrow=none;endFill=0;shape=link;" edge="1" parent="1" source="pie1EhJkZhUP2Qu_YC7P-55" target="pie1EhJkZhUP2Qu_YC7P-8">
          <mxGeometry relative="1" as="geometry" />
        </mxCell>
        <mxCell id="pie1EhJkZhUP2Qu_YC7P-55" value="é responsável" style="rhombus;whiteSpace=wrap;html=1;" vertex="1" parent="1">
          <mxGeometry x="360" y="-52.5" width="105" height="105" as="geometry" />
        </mxCell>
        <mxCell id="pie1EhJkZhUP2Qu_YC7P-58" value="1, 1" style="text;html=1;align=center;verticalAlign=middle;resizable=0;points=[];autosize=1;strokeColor=none;fillColor=none;" vertex="1" parent="1">
          <mxGeometry x="185" y="55" width="40" height="30" as="geometry" />
        </mxCell>
        <mxCell id="pie1EhJkZhUP2Qu_YC7P-59" value="0, n" style="text;html=1;align=center;verticalAlign=middle;resizable=0;points=[];autosize=1;strokeColor=none;fillColor=none;" vertex="1" parent="1">
          <mxGeometry x="580" y="-130" width="40" height="30" as="geometry" />
        </mxCell>
        <mxCell id="pie1EhJkZhUP2Qu_YC7P-74" value="Candidatura" style="rounded=0;whiteSpace=wrap;html=1;" vertex="1" parent="1">
          <mxGeometry x="990" y="252.5" width="120" height="60" as="geometry" />
        </mxCell>
        <mxCell id="pie1EhJkZhUP2Qu_YC7P-78" value="tem" style="rhombus;whiteSpace=wrap;html=1;" vertex="1" parent="1">
          <mxGeometry x="840" y="82.5" width="105" height="105" as="geometry" />
        </mxCell>
        <mxCell id="pie1EhJkZhUP2Qu_YC7P-83" style="edgeStyle=orthogonalEdgeStyle;rounded=0;orthogonalLoop=1;jettySize=auto;html=1;endArrow=none;endFill=0;" edge="1" parent="1" source="pie1EhJkZhUP2Qu_YC7P-81" target="pie1EhJkZhUP2Qu_YC7P-74">
          <mxGeometry relative="1" as="geometry" />
        </mxCell>
        <mxCell id="pie1EhJkZhUP2Qu_YC7P-81" value="tem" style="rhombus;whiteSpace=wrap;html=1;" vertex="1" parent="1">
          <mxGeometry x="850" y="357.5" width="105" height="105" as="geometry" />
        </mxCell>
        <mxCell id="pie1EhJkZhUP2Qu_YC7P-84" value="0, n" style="text;html=1;align=center;verticalAlign=middle;resizable=0;points=[];autosize=1;strokeColor=none;fillColor=none;" vertex="1" parent="1">
          <mxGeometry x="740" y="135" width="40" height="30" as="geometry" />
        </mxCell>
        <mxCell id="pie1EhJkZhUP2Qu_YC7P-85" value="1, 1" style="text;html=1;align=center;verticalAlign=middle;resizable=0;points=[];autosize=1;strokeColor=none;fillColor=none;" vertex="1" parent="1">
          <mxGeometry x="980" y="222.5" width="40" height="30" as="geometry" />
        </mxCell>
        <mxCell id="pie1EhJkZhUP2Qu_YC7P-86" value="1, 1" style="text;html=1;align=center;verticalAlign=middle;resizable=0;points=[];autosize=1;strokeColor=none;fillColor=none;" vertex="1" parent="1">
          <mxGeometry x="1050" y="312.5" width="40" height="30" as="geometry" />
        </mxCell>
        <mxCell id="pie1EhJkZhUP2Qu_YC7P-87" value="0, n" style="text;html=1;align=center;verticalAlign=middle;resizable=0;points=[];autosize=1;strokeColor=none;fillColor=none;" vertex="1" parent="1">
          <mxGeometry x="740" y="410" width="40" height="30" as="geometry" />
        </mxCell>
        <mxCell id="pie1EhJkZhUP2Qu_YC7P-99" style="edgeStyle=orthogonalEdgeStyle;rounded=0;orthogonalLoop=1;jettySize=auto;html=1;entryX=0.998;entryY=0.515;entryDx=0;entryDy=0;entryPerimeter=0;endArrow=none;endFill=0;curved=1;" edge="1" parent="1" source="pie1EhJkZhUP2Qu_YC7P-92" target="pie1EhJkZhUP2Qu_YC7P-74">
          <mxGeometry relative="1" as="geometry" />
        </mxCell>
        <mxCell id="pie1EhJkZhUP2Qu_YC7P-92" value="&lt;font style=&quot;font-size: 8px;&quot;&gt;data&lt;/font&gt;" style="ellipse;whiteSpace=wrap;html=1;" vertex="1" parent="1">
          <mxGeometry x="1180" y="252.5" width="40" height="30" as="geometry" />
        </mxCell>
        <mxCell id="pie1EhJkZhUP2Qu_YC7P-100" value="&lt;font style=&quot;font-size: 8px;&quot;&gt;id&lt;/font&gt;" style="ellipse;whiteSpace=wrap;html=1;" vertex="1" parent="1">
          <mxGeometry x="600" y="480" width="60" height="30" as="geometry" />
        </mxCell>
        <mxCell id="pie1EhJkZhUP2Qu_YC7P-101" value="&lt;font style=&quot;font-size: 8px;&quot;&gt;nome&lt;/font&gt;" style="ellipse;whiteSpace=wrap;html=1;" vertex="1" parent="1">
          <mxGeometry x="600" y="530" width="60" height="30" as="geometry" />
        </mxCell>
        <mxCell id="pie1EhJkZhUP2Qu_YC7P-108" style="edgeStyle=orthogonalEdgeStyle;rounded=0;orthogonalLoop=1;jettySize=auto;html=1;entryX=-0.011;entryY=0.328;entryDx=0;entryDy=0;entryPerimeter=0;endArrow=none;endFill=0;curved=1;" edge="1" parent="1" source="pie1EhJkZhUP2Qu_YC7P-106" target="pie1EhJkZhUP2Qu_YC7P-43">
          <mxGeometry relative="1" as="geometry" />
        </mxCell>
        <mxCell id="pie1EhJkZhUP2Qu_YC7P-106" value="&lt;font style=&quot;font-size: 8px;&quot;&gt;id&lt;/font&gt;" style="ellipse;whiteSpace=wrap;html=1;" vertex="1" parent="1">
          <mxGeometry x="-70" y="5" width="60" height="30" as="geometry" />
        </mxCell>
        <mxCell id="pie1EhJkZhUP2Qu_YC7P-107" value="&lt;font style=&quot;font-size: 8px;&quot;&gt;nome&lt;/font&gt;" style="ellipse;whiteSpace=wrap;html=1;" vertex="1" parent="1">
          <mxGeometry x="-70" y="55" width="60" height="30" as="geometry" />
        </mxCell>
        <mxCell id="pie1EhJkZhUP2Qu_YC7P-111" value="&lt;font style=&quot;font-size: 8px;&quot;&gt;id&lt;/font&gt;" style="ellipse;whiteSpace=wrap;html=1;" vertex="1" parent="1">
          <mxGeometry x="650" y="-250" width="60" height="30" as="geometry" />
        </mxCell>
        <mxCell id="pie1EhJkZhUP2Qu_YC7P-114" style="edgeStyle=orthogonalEdgeStyle;rounded=0;orthogonalLoop=1;jettySize=auto;html=1;entryX=1.002;entryY=0.362;entryDx=0;entryDy=0;entryPerimeter=0;curved=1;endArrow=none;endFill=0;" edge="1" parent="1" source="pie1EhJkZhUP2Qu_YC7P-112" target="pie1EhJkZhUP2Qu_YC7P-33">
          <mxGeometry relative="1" as="geometry" />
        </mxCell>
        <mxCell id="pie1EhJkZhUP2Qu_YC7P-112" value="&lt;font style=&quot;font-size: 8px;&quot;&gt;nome&lt;/font&gt;" style="ellipse;whiteSpace=wrap;html=1;" vertex="1" parent="1">
          <mxGeometry x="730" y="-250" width="60" height="30" as="geometry" />
        </mxCell>
        <mxCell id="pie1EhJkZhUP2Qu_YC7P-119" value="&lt;font style=&quot;font-size: 8px;&quot;&gt;id&lt;/font&gt;" style="ellipse;whiteSpace=wrap;html=1;" vertex="1" parent="1">
          <mxGeometry x="600" y="202.5" width="60" height="30" as="geometry" />
        </mxCell>
        <mxCell id="pie1EhJkZhUP2Qu_YC7P-121" value="&lt;font style=&quot;font-size: 8px;&quot;&gt;id&lt;/font&gt;" style="ellipse;whiteSpace=wrap;html=1;" vertex="1" parent="1">
          <mxGeometry x="140" y="167.5" width="60" height="30" as="geometry" />
        </mxCell>
      </root>
    </mxGraphModel>
  </diagram>
</mxfile>
